<?xml version="1.0" encoding="UTF-8" standalone="no"?>
<!-- Created with Inkscape (http://www.inkscape.org/) -->

<svg
   xmlns:dc="http://purl.org/dc/elements/1.1/"
   xmlns:cc="http://creativecommons.org/ns#"
   xmlns:rdf="http://www.w3.org/1999/02/22-rdf-syntax-ns#"
   xmlns:svg="http://www.w3.org/2000/svg"
   xmlns="http://www.w3.org/2000/svg"
   xmlns:sodipodi="http://sodipodi.sourceforge.net/DTD/sodipodi-0.dtd"
   xmlns:inkscape="http://www.inkscape.org/namespaces/inkscape"
   width="46.888458mm"
   height="31.63838mm"
   viewBox="0 0 46.888458 31.63838"
   version="1.1"
   id="svg8"
   inkscape:version="0.92.4 (5da689c313, 2019-01-14)"
   sodipodi:docname="nuage_white.svg">
  <defs
     id="defs2">
    <inkscape:path-effect
       effect="bspline"
       id="path-effect4531"
       is_visible="true"
       weight="33.333333"
       steps="2"
       helper_size="0"
       apply_no_weight="true"
       apply_with_weight="true"
       only_selected="false" />
    <inkscape:path-effect
       effect="bspline"
       id="path-effect4531-5"
       is_visible="true"
       weight="33.333333"
       steps="2"
       helper_size="0"
       apply_no_weight="true"
       apply_with_weight="true"
       only_selected="false" />
    <inkscape:path-effect
       effect="bspline"
       id="path-effect4531-5-2"
       is_visible="true"
       weight="33.333333"
       steps="2"
       helper_size="0"
       apply_no_weight="true"
       apply_with_weight="true"
       only_selected="false" />
  </defs>
  <sodipodi:namedview
     id="base"
     pagecolor="#ffffff"
     bordercolor="#666666"
     borderopacity="1.0"
     inkscape:pageopacity="0.0"
     inkscape:pageshadow="2"
     inkscape:zoom="2.8"
     inkscape:cx="56.942007"
     inkscape:cy="39.676584"
     inkscape:document-units="mm"
     inkscape:current-layer="layer1"
     showgrid="false"
     inkscape:window-width="1366"
     inkscape:window-height="705"
     inkscape:window-x="-8"
     inkscape:window-y="-8"
     inkscape:window-maximized="1"
     fit-margin-top="0"
     fit-margin-left="0"
     fit-margin-right="0"
     fit-margin-bottom="0" />
  <metadata
     id="metadata5">
    <rdf:RDF>
      <cc:Work
         rdf:about="">
        <dc:format>image/svg+xml</dc:format>
        <dc:type
           rdf:resource="http://purl.org/dc/dcmitype/StillImage" />
        <dc:title></dc:title>
      </cc:Work>
    </rdf:RDF>
  </metadata>
  <g
     inkscape:label="Calque 1"
     inkscape:groupmode="layer"
     id="layer1"
     transform="translate(-8.4562229,-27.469374)">
    <g
       id="g4974"
       transform="translate(12.423511,2.5735943)"
       style="fill:#ffffff;fill-opacity:1">
      <path
         id="path4951-5"
         style="fill:#ffffff;fill-opacity:1;stroke:#000000;stroke-width:0.05;stroke-linecap:butt;stroke-linejoin:miter;stroke-miterlimit:4;stroke-dasharray:none;stroke-opacity:1"
         d="m 36.262222,40.231249 c 0.20974,0.09604 0.47796,0.183457 0.79068,0.366723 2.31677,1.357721 3.83939,4.09264 3.84326,6.90329 0.005,3.300053 -2.04628,6.228173 -5.15161,7.355344 -3.1729,1.151709 -6.90574,-0.0778 -8.6668,-2.854721 -0.26598,-0.41941 -0.51812,-0.87586 -0.51809,-0.91491 0,0 0.29604,0.25691 0.69353,0.74817 1.95791,2.41971 5.40138,3.161891 8.26264,1.780861 1.40957,-0.68033 2.84368,-2.461921 3.26925,-4.06132 0.28594,-1.07471 0.19184,-2.676384 -0.223,-3.795573 -0.63483,-1.712681 -2.22364,-3.14058 -4.11622,-3.69935 l -0.59971,-0.17706 v -0.940302 c 0,-2.269209 -0.81562,-3.499581 -3.36551,-4.415458 -0.37118,-0.09513 -0.70489,-0.139818 -1.05908,-0.197344 0,0 4.46338,-0.77178 6.84066,3.90165 z M 19.121643,29.219239 c 0.0658,-0.124097 0.12889,-0.206307 0.24916,-0.379075 0.64491,-0.926431 2.16255,-2.262221 3.05304,-2.687211 1.18499,-0.565545 1.91928,-0.727927 3.31151,-0.732127 1.60842,-0.0049 2.92731,0.367825 4.14529,1.232569 -9.98404,-2.59456 -9.08076,6.960937 -9.08076,6.960937 0,0 -2.984782,-2.658372 -6.259982,-1.248656 -2.7992,1.559866 -2.89455,4.34974 -2.89455,4.34974 0,0 -1.2321,-6.925186 7.476292,-7.496177 z m 10.29991,7.11036 c 0.0531,-0.161718 1.0192,-2.181148 0.85929,-3.676346 -0.50084,-5.348579 -6.693131,-5.282655 -8.48057,-2.064668 -0.769705,1.38574 -1.000396,3.025747 -1.000396,3.025747 0,0 -0.90327,-9.555497 9.080766,-6.960937 0.42931,0.304388 0.897749,0.705527 1.288959,1.1224 2.61403,2.734761 1.76006,6.647316 1.69795,6.860297 0.11008,0.114705 0.79402,0.48009 1.30818,0.951222 1.08686,0.995906 1.79629,2.351555 2.04149,3.756736 0.0706,0.40436 0.0629,0.579806 0.045,0.887199 -2.37728,-4.67343 -6.840649,-3.90165 -6.840649,-3.90165 z M 9.3626076,33.86075 c 0.0572,-0.126908 0.2238399,-0.500692 0.5100098,-0.99068 1.0292006,-1.762249 2.5359996,-2.983273 4.5002456,-3.646775 1.02882,-0.347523 3.33574,-0.428344 4.23333,-0.148313 0.24048,0.07502 0.34598,0.08868 0.51545,0.144257 -8.708386,0.570991 -7.476296,7.496178 -7.476296,7.496178 0,0 -2.7052705,-0.733522 -4.5896395,1.463705 -1.191091,1.388848 -0.726261,3.711531 -0.726261,3.711531 0,0 -1.65923,-5.474536 3.0331611,-8.029903 z m -3.9150514,8.19608 c -6.566487,1.283186 -4.97519001,7.47759 -4.97519001,7.47759 0,0 -2.45798999,-4.82826 3.16982011,-9.85587 0,-0.14212 -0.005,-0.20641 0.045,-0.57499 0.29439,-2.19484 2.8617,-4.80689 5.08127,-5.16981 0.2130312,-0.0348 0.270501,-0.0513 0.5941513,-0.073 -4.6923801,2.55535 -2.9504913,8.02103 -2.9504913,8.02103 z m -4.54107984,8.608081 c 0.52064004,1.03866 1.93685004,2.20724 2.96038014,2.69573 2.4004299,1.14562 5.1898104,0.69164 7.2031095,-1.17233 l 0.8209,-0.82434 0.62568,0.93425 c 1.14748,1.74532 2.890841,2.95353 4.997881,3.46369 l 1.02114,0.24725 -0.70554,-7.94e-4 c -0.38806,-5.29e-4 -0.95956,-0.0516 -1.27,-0.11379 h 3e-5 c -1.35719,-0.271696 -2.710391,-0.983516 -4.036351,-2.123246 l -0.79078,-0.67972 -0.53826,0.55122 c -1.09485,1.12124 -3.2780896,1.96585 -5.0928495,1.97023 -1.3271302,0.003 -2.27423,-0.22497 -3.5629501,-0.85841 -3.97254,-1.95262 -5.61501,-6.801911 -3.65161,-10.781171 0.87110996,-1.7655 2.3097399,-3.20229 3.96529,-3.96022 0.49227,-0.22537 0.6999901,-0.28295 0.7896399,-0.33471 -3.31729994,2.85267 -4.6563399,7.1122 -2.73570994,10.986361 z" />
    </g>
  </g>
</svg>
